<svg width="67" height="68" xmlns="http://www.w3.org/2000/svg" xmlns:xlink="http://www.w3.org/1999/xlink" xml:space="preserve" overflow="hidden"><g transform="translate(-1120 -380)"><path d="M31.7552 13.9583C20.9375 13.9583 12.2135 22.6823 12.2135 33.5 12.2135 36.9198 13.1208 40.1302 14.6562 42.9219 16.1219 41.3865 17.7271 39.851 19.4719 38.176 23.8688 34.0583 29.0333 29.8708 33.3604 26.8 33.6396 26.5906 33.9188 26.451 34.2677 26.451 35.0354 26.451 35.6635 27.0792 35.6635 27.8469 35.6635 28.3354 35.4542 28.6844 35.1052 28.9635L35.1052 28.9635C28.8938 33.4302 20.6583 40.3396 15.075 46.6208 15.075 46.6208 14.3073 47.4583 13.9583 47.8771L13.9583 47.8771C10.8177 51.576 8.72396 54.926 8.72396 57.299L12.9115 57.299C12.9115 55.7635 15.3542 52.4135 19.0531 48.4354 22.4729 51.3667 26.8698 53.1115 31.7552 53.1115 35.2448 53.1115 38.5948 52.2042 41.4563 50.5292L41.4563 50.5292C56.3917 42.224 58.276 26.9396 58.276 9.77083 58.276 9.77083 42.0146 14.2375 31.7552 13.9583Z" stroke="#AAAAAA" stroke-width="0.697917" fill="#122040" transform="matrix(1 0 0 1.01493 1120 380)"/></g></svg>